<?xml version="1.0" standalone="no"?>
<!DOCTYPE svg PUBLIC "-//W3C//DTD SVG 20010904//EN"
 "http://www.w3.org/TR/2001/REC-SVG-20010904/DTD/svg10.dtd">
<svg version="1.0" xmlns="http://www.w3.org/2000/svg"
 width="300.000000pt" height="300.000000pt" viewBox="0 0 300.000000 300.000000"
 preserveAspectRatio="xMidYMid meet">
<metadata>
Created by potrace 1.11, written by Peter Selinger 2001-2013
</metadata>
<g transform="translate(0.000000,300.000000) scale(0.100000,-0.100000)"
fill="#000000" stroke="none">
<path d="M0 1500 l0 -1500 1500 0 1500 0 0 1500 0 1500 -1500 0 -1500 0 0
-1500z m772 1071 c140 -67 188 -188 223 -556 43 -459 91 -637 201 -755 42 -45
120 -89 187 -105 l27 -7 0 706 0 706 85 0 85 0 0 -706 0 -707 33 7 c57 11 154
65 192 108 97 107 160 332 190 683 18 203 54 406 87 482 7 16 25 47 40 70 57
85 199 122 348 91 59 -13 65 -16 68 -41 3 -24 0 -27 -28 -27 -64 0 -115 -46
-146 -132 -20 -57 -39 -172 -59 -351 -45 -411 -102 -579 -253 -739 -121 -128
-249 -200 -405 -229 l-67 -12 0 -329 0 -328 -85 0 -85 0 0 328 0 328 -77 18
c-162 38 -288 109 -395 225 -146 159 -189 284 -243 716 -53 419 -80 490 -189
502 -42 5 -46 8 -46 33 0 26 4 28 63 38 94 16 196 9 249 -17z m1688 -1146 c40
-21 40 -51 -1 -59 -60 -12 -164 -71 -225 -128 -69 -65 -129 -167 -140 -238
l-7 -45 24 18 c67 48 104 61 174 61 177 0 273 -112 263 -307 -5 -102 -37 -176
-103 -242 -131 -132 -333 -133 -450 -3 -64 71 -87 139 -93 275 -8 197 43 344
164 473 79 83 144 129 249 175 90 39 104 41 145 20z"/>
<path d="M2176 905 c-22 -8 -53 -28 -70 -45 -30 -30 -31 -32 -31 -128 0 -69 5
-110 18 -143 55 -143 201 -159 270 -29 23 45 27 64 27 139 0 113 -24 165 -90
199 -51 25 -70 27 -124 7z"/>
</g>
</svg>
